<svg xmlns="http://www.w3.org/2000/svg" viewBox="0 0 367.5 367.5"><defs><style>.cls-1{fill:#fff;}.cls-2{fill:none;}</style></defs><title>Asset 3</title><g id="Layer_2" data-name="Layer 2"><g id="Layer_1-2" data-name="Layer 1"><path class="cls-1" d="M183.75,0C82.27,0,0,82.27,0,183.75a183.75,183.75,0,0,0,367.5,0C367.5,82.27,285.23,0,183.75,0ZM303.37,203.49H203.49v99.88a13.39,13.39,0,0,1-13.39,13.39H177.41A13.39,13.39,0,0,1,164,303.37V203.49H64.13A13.4,13.4,0,0,1,50.74,190.1V177.41A13.39,13.39,0,0,1,64.13,164H164V64.14a13.4,13.4,0,0,1,13.4-13.4H190.1a13.4,13.4,0,0,1,13.39,13.4V164h99.88a13.38,13.38,0,0,1,13.39,13.39V190.1A13.39,13.39,0,0,1,303.37,203.49Z"/><path class="cls-2" d="M316.76,177.41V190.1a13.39,13.39,0,0,1-13.39,13.39H203.49v99.88a13.39,13.39,0,0,1-13.39,13.39H177.41A13.39,13.39,0,0,1,164,303.37V203.49H64.13A13.4,13.4,0,0,1,50.74,190.1V177.41A13.39,13.39,0,0,1,64.13,164H164V64.14a13.4,13.4,0,0,1,13.4-13.4H190.1a13.4,13.4,0,0,1,13.39,13.4V164h99.88A13.38,13.38,0,0,1,316.76,177.41Z"/></g></g></svg>