<svg xmlns="http://www.w3.org/2000/svg" viewBox="0 0 111.71 96.23"><defs><style>.cls-1{fill:#8cb38f;}.cls-2{fill:#485a5b;}.cls-3{fill:#90b4e0;}</style></defs><title>logo</title><g id="Lag_2" data-name="Lag 2"><g id="Lag_1-2" data-name="Lag 1"><g id="gyS2Q0.tif"><path class="cls-1" d="M.15,20.61C31,17.73,54.9,39,55.31,69.23c.1,7.49-.08,15,.08,22.46.06,3-.62,4.38-4.09,4.5C23.75,97.13,1.54,77.2.23,49.76-.23,40.16.15,30.52.15,20.61Z"/><path class="cls-2" d="M111.57,61c1.68,19.71-11.69,34.75-31.09,35.19-5.63.13-11.26,0-16.75,0C58.38,73,80.93,56.57,111.57,61Z"/><path class="cls-3" d="M74.3,0C80.18,8.85,86,16.76,90.88,25.18c4.72,8.06,2.17,18-5.15,23.65A18.73,18.73,0,0,1,61.87,48a18.33,18.33,0,0,1-3.53-23.95C63.27,16.19,68.59,8.56,74.3,0Z"/></g></g></g></svg>