<svg xmlns="http://www.w3.org/2000/svg" viewBox="0 0 367.5 367.5"><defs><style>.cls-1{fill:#fff;}.cls-2{fill:none;}</style></defs><title>Asset 1</title><g id="Layer_2" data-name="Layer 2"><g id="Layer_1-2" data-name="Layer 1"><g id="Layer_1-2-2" data-name="Layer 1-2"><path class="cls-1" d="M183.75,0C82.27,0,0,82.27,0,183.75S82.27,367.5,183.75,367.5,367.5,285.23,367.5,183.75,285.23,0,183.75,0Zm99.87,271.83-8.83,9.1a13.39,13.39,0,0,1-18.93.3h0l-71.68-69.56-69.56,71.67a13.39,13.39,0,0,1-18.93.3h0l-9.1-8.84a13.38,13.38,0,0,1-.29-18.93h0l69.56-71.67L84.17,114.61a13.38,13.38,0,0,1-.29-18.93h0l8.83-9.11a13.38,13.38,0,0,1,18.93-.29h0l71.68,69.56L252.9,84.16a13.38,13.38,0,0,1,18.93-.29h0l9.1,8.84a13.38,13.38,0,0,1,.3,18.91l0,0-69.56,71.68,71.68,69.56a13.38,13.38,0,0,1,.29,18.93Z"/><path class="cls-2" d="M283.62,271.83l-8.83,9.1a13.39,13.39,0,0,1-18.93.3h0l-71.68-69.56-69.56,71.67a13.39,13.39,0,0,1-18.93.3h0l-9.1-8.84a13.38,13.38,0,0,1-.29-18.93h0l69.56-71.67L84.17,114.61a13.38,13.38,0,0,1-.29-18.93h0l8.83-9.11a13.38,13.38,0,0,1,18.93-.29h0l71.68,69.56L252.9,84.16a13.38,13.38,0,0,1,18.93-.29h0l9.1,8.84a13.38,13.38,0,0,1,.3,18.91l0,0-69.56,71.68,71.68,69.56a13.38,13.38,0,0,1,.29,18.93Z"/></g></g></g></svg>